# xmcd CD database file
#
# Track frame offsets:
#	150
#	16650
#	42527
#	67034
#	87590
#	106648
#	125553
#	136022
#	160923
#	195213
#	216520
#	238544
#
# Disc length: 3494 seconds
#
# Revision: 4
# Processed by: cddbd v1.5.2PL0 Copyright (c) Steve Scherf et al.
# Submitted via: CDex 1.51
#
DISCID=9e0da40c
DTITLE=SNOWY WHITE and THE WHITE FLAMES - Melting
DYEAR=1999
DGENRE=Blues
TTITLE0=Discoveri
TTITLE1=Long Distance Loving
TTITLE2=I'll Be Moving On
TTITLE3=The More You Live
TTITLE4=Little Wing
TTITLE5=That's When I'll Stop Loving You
TTITLE6=Terpisah
TTITLE7=The First Move
TTITLE8=Like The Sun
TTITLE9=That Ain't Right
TTITLE10=Melting
TTITLE11=(Bonus With David Gilmour) Love, Pain and Sorrow
EXTD=YEAR: 1999
EXTT0=
EXTT1=
EXTT2=
EXTT3=
EXTT4=
EXTT5=
EXTT6=
EXTT7=
EXTT8=
EXTT9=
EXTT10=
EXTT11=
PLAYORDER=
